<svg width="26" height="21" viewBox="0 0 26 21" fill="none" xmlns="http://www.w3.org/2000/svg">
<path d="M7.5 21C8.56087 21 9.57828 20.5786 10.3284 19.8284C11.0786 19.0783 11.5 18.0609 11.5 17H15.5C15.5 18.0609 15.9214 19.0783 16.6716 19.8284C17.4217 20.5786 18.4391 21 19.5 21C20.5609 21 21.5783 20.5786 22.3284 19.8284C23.0786 19.0783 23.5 18.0609 23.5 17H25.5V16C25.5 14.45 24.83 11.67 22.43 11.1C21.9706 8.69219 21.3423 6.31967 20.55 4H21.5C21.5 4.53043 21.7107 5.03914 22.0858 5.41421C22.4609 5.78929 22.9696 6 23.5 6H24.5V0H23.5C22.9696 0 22.4609 0.210714 22.0858 0.585787C21.7107 0.96086 21.5 1.46957 21.5 2H15.5C15.2348 2 14.9804 2.10536 14.7929 2.29289C14.6054 2.48043 14.5 2.73478 14.5 3C14.5 3.26522 14.6054 3.51957 14.7929 3.70711C14.9804 3.89464 15.2348 4 15.5 4H17.5V4.11C17.73 6.28 17.66 10.21 16.5 11.56C16.379 11.706 16.2256 11.8218 16.052 11.8982C15.8784 11.9746 15.6894 12.0094 15.5 12C14.5 12 14.5 12 14.5 9V8H13.5V5C13.5 4.73478 13.3946 4.48043 13.2071 4.29289C13.0196 4.10536 12.7652 4 12.5 4H5.5C5.23478 4 4.98043 4.10536 4.79289 4.29289C4.60536 4.48043 4.5 4.73478 4.5 5V9C2.06 10 0.5 12 0.5 16V17H3.5C3.5 18.0609 3.92143 19.0783 4.67157 19.8284C5.42172 20.5786 6.43913 21 7.5 21ZM7.5 19C6.96957 19 6.46086 18.7893 6.08579 18.4142C5.71071 18.0391 5.5 17.5304 5.5 17H9.5C9.5 17.5304 9.28929 18.0391 8.91421 18.4142C8.53914 18.7893 8.03043 19 7.5 19ZM19.5 19C18.9696 19 18.4609 18.7893 18.0858 18.4142C17.7107 18.0391 17.5 17.5304 17.5 17H21.5C21.5 17.5304 21.2893 18.0391 20.9142 18.4142C20.5391 18.7893 20.0304 19 19.5 19ZM6.5 6H11.5V8C9.8256 7.98559 8.15299 8.11271 6.5 8.38V6ZM2.5 15C2.87 10.44 5.98 10 12.5 10C12.5 12.37 12.86 14 15.5 14C15.9727 14.0105 16.442 13.9165 16.8741 13.7246C17.3063 13.5327 17.6908 13.2477 18 12.89C19.11 11.65 19.51 9.54 19.62 7.67C20.0579 9.08014 20.3527 10.5308 20.5 12V13H21.5C22.73 13 23.2 14.13 23.38 15H2.5Z" fill="#76B043"/>
</svg>
<svg width="26" height="21" viewBox="0 0 26 21" fill="none" xmlns="http://www.w3.org/2000/svg">
<path d="M7.5 21C8.56087 21 9.57828 20.5786 10.3284 19.8284C11.0786 19.0783 11.5 18.0609 11.5 17H15.5C15.5 18.0609 15.9214 19.0783 16.6716 19.8284C17.4217 20.5786 18.4391 21 19.5 21C20.5609 21 21.5783 20.5786 22.3284 19.8284C23.0786 19.0783 23.5 18.0609 23.5 17H25.5V16C25.5 14.45 24.83 11.67 22.43 11.1C21.9706 8.69219 21.3423 6.31967 20.55 4H21.5C21.5 4.53043 21.7107 5.03914 22.0858 5.41421C22.4609 5.78929 22.9696 6 23.5 6H24.5V0H23.5C22.9696 0 22.4609 0.210714 22.0858 0.585787C21.7107 0.96086 21.5 1.46957 21.5 2H15.5C15.2348 2 14.9804 2.10536 14.7929 2.29289C14.6054 2.48043 14.5 2.73478 14.5 3C14.5 3.26522 14.6054 3.51957 14.7929 3.70711C14.9804 3.89464 15.2348 4 15.5 4H17.5V4.11C17.73 6.28 17.66 10.21 16.5 11.56C16.379 11.706 16.2256 11.8218 16.052 11.8982C15.8784 11.9746 15.6894 12.0094 15.5 12C14.5 12 14.5 12 14.5 9V8H13.5V5C13.5 4.73478 13.3946 4.48043 13.2071 4.29289C13.0196 4.10536 12.7652 4 12.5 4H5.5C5.23478 4 4.98043 4.10536 4.79289 4.29289C4.60536 4.48043 4.5 4.73478 4.5 5V9C2.06 10 0.5 12 0.5 16V17H3.5C3.5 18.0609 3.92143 19.0783 4.67157 19.8284C5.42172 20.5786 6.43913 21 7.5 21ZM7.5 19C6.96957 19 6.46086 18.7893 6.08579 18.4142C5.71071 18.0391 5.5 17.5304 5.5 17H9.5C9.5 17.5304 9.28929 18.0391 8.91421 18.4142C8.53914 18.7893 8.03043 19 7.5 19ZM19.5 19C18.9696 19 18.4609 18.7893 18.0858 18.4142C17.7107 18.0391 17.5 17.5304 17.5 17H21.5C21.5 17.5304 21.2893 18.0391 20.9142 18.4142C20.5391 18.7893 20.0304 19 19.5 19ZM6.5 6H11.5V8C9.8256 7.98559 8.15299 8.11271 6.5 8.38V6ZM2.5 15C2.87 10.44 5.98 10 12.5 10C12.5 12.37 12.86 14 15.5 14C15.9727 14.0105 16.442 13.9165 16.8741 13.7246C17.3063 13.5327 17.6908 13.2477 18 12.89C19.11 11.65 19.51 9.54 19.62 7.67C20.0579 9.08014 20.3527 10.5308 20.5 12V13H21.5C22.73 13 23.2 14.13 23.38 15H2.5Z" fill="#76B043"/>
</svg>
